<svg xmlns="http://www.w3.org/2000/svg" viewBox="0 0 20.86 17.42"><defs><style>.cls-1{fill:#39b54a;}</style></defs><title>leaf</title><g id="Layer_2" data-name="Layer 2"><g id="Layer_1-2" data-name="Layer 1"><path class="cls-1" d="M1.5,15.07A8.1,8.1,0,0,1,2.41,4.64a13.44,13.44,0,0,1,6.87-4A26.88,26.88,0,0,1,20.86.58c-3.59,2.75-4.67,6.85-6.48,10.5A12.34,12.34,0,0,1,10,16.33a6.14,6.14,0,0,1-6.71.18,1.32,1.32,0,0,1-.53-1C3.42,11.28,5.82,8.26,9.21,6A4.07,4.07,0,0,0,10,5.31C5.66,7.09,2.43,9.94,1.5,15.07Z"/></g></g></svg>