<svg id="Layer_1" data-name="Layer 1" xmlns="http://www.w3.org/2000/svg" viewBox="0 0 298.11 118.52"><defs><style>.cls-1,.cls-2{font-size:75px;font-family:HelveticaNeue-Bold, Helvetica Neue;font-weight:700;}.cls-1,.cls-3{fill:#39b54a;}.cls-4{fill:#fff;}</style></defs><title>logo</title><text class="cls-1" transform="translate(0 81.74)">Up</text><text class="cls-2" transform="translate(100.36 82.12) rotate(0.11)"><tspan xml:space="preserve">Ke   </tspan></text><text x="-138.96" y="-52.84"></text><path class="cls-3" d="M333.75,127.73c.59-.08,1.09-.13,1.57-.23a15.19,15.19,0,0,0,6.5-3.06,8,8,0,0,0,3.06-6.26c.11-3.25.08-6.52.46-9.73.85-7,5.44-10.84,12.54-10.52a3.66,3.66,0,0,0,2.59-.72,12.07,12.07,0,0,1,7-2.33A13.75,13.75,0,0,1,376.21,97a16.19,16.19,0,0,1,7.64,14.07c0,2.75-.13,5.5-.24,8.24a8.05,8.05,0,0,0,3.07,6.91,14.54,14.54,0,0,0,6.43,3.21c.3.05.59.15,1,.25a9.67,9.67,0,0,1-3.76,4.58c-5.31,3.1-10.74,3.08-16.2.43a1.53,1.53,0,0,0-1.61,0c-3.76,2-7.73,3.11-11.95,1.89a35.32,35.32,0,0,1-5.68-2.51,1.48,1.48,0,0,0-1.44-.09,16.35,16.35,0,0,1-16.07-1.31A9.85,9.85,0,0,1,333.75,127.73Zm24.89-16.21a14.06,14.06,0,0,1-7.39,5.11c-.21.07-.41.16-.62.21a.83.83,0,0,0-.72.91c-.31,6.26,2.14,11.23,7.5,14.36a12.86,12.86,0,0,0,13.76-.15,14.71,14.71,0,0,0,7-9.68,12.51,12.51,0,0,0,.28-4.8c-2.09-.07-4.1,0-6.08-.22C367.3,116.76,362.49,115.42,358.64,111.52Z" transform="translate(-138.96 -52.84)"/><path class="cls-4" d="M358.64,111.52c3.85,3.9,8.66,5.24,13.77,5.74,2,.2,4,.15,6.08.22a12.51,12.51,0,0,1-.28,4.8,14.71,14.71,0,0,1-7,9.68,12.86,12.86,0,0,1-13.76.15c-5.36-3.13-7.81-8.1-7.5-14.36a.83.83,0,0,1,.72-.91c.21,0,.41-.14.62-.21A14.06,14.06,0,0,0,358.64,111.52Zm.2,9a2.52,2.52,0,0,0-2.24-2.62,2.41,2.41,0,0,0-2.45,2.49,2.31,2.31,0,0,0,2.22,2.39A2.36,2.36,0,0,0,358.84,120.53ZM372,118.4a2.46,2.46,0,0,0-2.47,2.38,2.34,2.34,0,1,0,4.68.25A2.45,2.45,0,0,0,372,118.4Z" transform="translate(-138.96 -52.84)"/><path class="cls-3" d="M358.84,120.53a2.36,2.36,0,0,1-2.47,2.26,2.31,2.31,0,0,1-2.22-2.39,2.41,2.41,0,0,1,2.45-2.49A2.52,2.52,0,0,1,358.84,120.53Z" transform="translate(-138.96 -52.84)"/><path class="cls-3" d="M372,118.4a2.45,2.45,0,0,1,2.21,2.63,2.34,2.34,0,1,1-4.68-.25A2.46,2.46,0,0,1,372,118.4Z" transform="translate(-138.96 -52.84)"/><path d="M194,131" transform="translate(-138.96 -52.84)"/><path d="M169,146" transform="translate(-138.96 -52.84)"/><text class="cls-2" transform="translate(252.29 81.85)">p</text><g id="SSBvKl.tif"><path class="cls-4" d="M357.47,105.44c.43-3.89,2.18-5.25,6.79-5.41,4.77-.16,6.92,1.33,7.51,5.18a25.49,25.49,0,0,1,3.71,0c1.87.29,2.69,1.51,2.49,3.42-.22,2.08-1.66,2.27-3.25,2.06-2.74-.36-5.46-1.12-8.19-1.14-3.59,0-7.18.58-10.77.75a9,9,0,0,1-4-.62c-.41-.19-.57-2.41-.11-2.77a12.36,12.36,0,0,1,4.06-1.76C356.19,105,356.86,105.34,357.47,105.44Z" transform="translate(-138.96 -52.84)"/></g></svg>